<svg xmlns="http://www.w3.org/2000/svg" width="172" height="162.31" viewBox="0 0 172 162.31"><defs><style>.a{fill:#581008;}.a,.b,.c,.d,.e,.f,.g,.h,.i,.j,.k,.l{fill-rule:evenodd;}.b{fill:#ee9f1f;}.c{fill:#390803;}.d{fill:#db8d0f;}.e{fill:#6f6571;}.f{fill:#eceaec;}.g{fill:#dad8db;}.h{fill:#ffece4;}.i{fill:#5d5360;}.j{fill:#ffddce;}.k{fill:#ffe07d;}.l{fill:#ffc269;}</style></defs><g transform="translate(0 71.837)"><path class="a" d="M425.685,228.265H382.021v15.169a6.827,6.827,0,0,0,6.808,6.813h15.706l9.369,4.732,11.782-4.732V228.265Z" transform="translate(-382.021 -228.265)"/></g><g transform="translate(0 49.826)"><path class="a" d="M418.878,162.742H388.83a6.827,6.827,0,0,0-6.808,6.813v11.271h43.664V169.555A6.827,6.827,0,0,0,418.878,162.742Z" transform="translate(-382.022 -162.742)"/></g><g transform="translate(0 64.513)"><path class="b" d="M425.686,206.463H382.022v10.711h43.664Z" transform="translate(-382.022 -206.463)"/></g><g transform="translate(0 49.825)"><path class="c" d="M473.718,177.429H464.6v-7.874a6.829,6.829,0,0,1,6.808-6.814h9.114a6.827,6.827,0,0,0-6.808,6.813v7.874Z" transform="translate(-464.604 -162.741)"/></g><g transform="translate(0 64.513)"><path class="d" d="M493.985,217.174h-9.114V206.463h9.114v10.711Z" transform="translate(-484.871 -206.463)"/></g><g transform="translate(0 75.225)"><path class="c" d="M473.719,238.348V250.13a6.827,6.827,0,0,0,6.808,6.813h-9.114a6.8,6.8,0,0,1-6.808-6.813V238.348h9.114Z" transform="translate(-464.605 -238.348)"/></g><g transform="translate(22.514 93.819)"><path class="e" d="M248.528,293.7H227.377v9.729a4.253,4.253,0,0,0,4.238,4.241h68.864c0-6.116,0-9.229-4.679-9.229l-9.32-.01c-5.866-.01-9.712-1.512-11.86-4.732H248.528Z" transform="translate(-227.377 -293.7)"/></g><g transform="translate(21.885 107.791)"><path class="a" d="M208.048,335.289H147.49c-3.551,6.185-6.406,13.618-3.944,27.834,4.12-14.02,45.97-8.424,50.267,7.756h46.176c1.746-3.957,3.394-7.864,4.836-11.811H231.808c-26.33-9.936-17.864-5.508-23.76-23.779Z" transform="translate(-142.623 -335.289)"/></g><g transform="translate(59.391 33.916)"><path class="f" d="M267.983,151.251a98.855,98.855,0,0,1-3.5,13.421l-13.311,5.216-14.843-5.216c.52-28.089,11.017-41.559,19.944-45.918a21.671,21.671,0,0,1,6.514-3.373s4.336,6.937,4.562,6.937c1.668,3.966,2.3,9.141,2.188,14.727Z" transform="translate(-236.326 -115.381)"/></g><g transform="translate(59.343 83.207)"><path class="b" d="M208.4,262.108h28.155c6.485.707,14.46,5.645,14.46,20.942v16.033l-6.39,3.806-8.306-3.806v-12.39c0-6.116,0-9.229-4.679-9.229l-9.32-.01c-5.866-.01-9.712-1.512-11.86-4.732-1.658-2.484-2.3-5.989-2.061-10.613Z" transform="translate(-208.357 -262.108)"/></g><g transform="translate(59.39 37.288)"><path class="g" d="M262.7,171.339c.52-28.089,11.017-41.559,19.944-45.918a18.029,18.029,0,0,0,4.415,2.268c-7.907,5.979-15.833,19.341-16.285,43.65Z" transform="translate(-262.702 -125.421)"/></g><g transform="translate(59.343 83.207)"><path class="d" d="M286.666,262.108h8.074c-.236,4.624.4,8.129,2.06,10.613a12.126,12.126,0,0,0,6.19,4.732h-2.4c-5.866-.01-9.712-1.512-11.86-4.732C287.069,270.237,286.431,266.732,286.666,262.108Z" transform="translate(-286.619 -262.108)"/></g><g transform="translate(21.68 117.294)"><path class="b" d="M345.87,389.665a25.671,25.671,0,0,0-50.267-7.756,26.324,26.324,0,0,0-1.128,6.931c-.03.943.618.825,1.5.825Q320.918,389.665,345.87,389.665Z" transform="translate(-294.474 -363.579)"/></g><g transform="translate(27.488 143.381)"><path class="e" d="M352.841,441.231H313.718a19.572,19.572,0,0,0,39.123,0Z" transform="translate(-313.718 -441.231)"/></g><g transform="translate(132.299 139.208)"><path class="e" d="M50.325,428.81l-33.658,7.746a17.269,17.269,0,1,0,33.658-7.746Z" transform="translate(-16.667 -428.81)"/></g><g transform="translate(125.657 119.584)"><path class="f" d="M42.821,380.582A23.493,23.493,0,0,0,21.17,370.509C5.945,373.73.991,382.831,0,394.181a23.46,23.46,0,0,0,.52,4.644c.1.432.383.255.854.147l5.268-1.208L40.3,390.018l2.521-.579,3.522-.815A23.306,23.306,0,0,0,42.821,380.582Z" transform="translate(0 -370.393)"/></g><g transform="translate(115.867 69.874)"><path class="b" d="M105.835,272.206l-13.6-47.047-6.121-2.739-6.847,2.739c9,24.938,6.485,42.345.412,58.957-1.452,3.947-3.1,7.854-4.836,11.811h9.781Z" transform="translate(-74.845 -222.42)"/></g><g transform="translate(82.552 16.465)"><path class="h" d="M219.285,66.831l-15.951-3.4c-1.619.147-6.249,4.035-6.249,6.47l3.394,17.26a15.579,15.579,0,0,0,4.464.658,15.424,15.424,0,0,0,14.342-20.991Z" transform="translate(-197.085 -63.434)"/></g><g transform="translate(71.055)"><path class="b" d="M223.7,34.285a19.429,19.429,0,1,0-38.848,0c0,7.245,2.943,13.686,8.28,17.427a18.53,18.53,0,0,0,6.612,2.906V37.357c0-2.435,1.236-2.926,2.855-3.073h21.1Z" transform="translate(-184.849 -14.423)"/></g><g transform="translate(71.055 0)"><path class="d" d="M242,17.358a18.956,18.956,0,0,0-10.163-2.935,19.639,19.639,0,0,0-19.424,19.862c0,7.245,2.943,13.686,8.28,17.427a18.024,18.024,0,0,0,4.5,2.3,22.591,22.591,0,0,1-6.082-16.052,20.542,20.542,0,0,1,20.307-20.765,18.652,18.652,0,0,1,2.58.167Z" transform="translate(-212.416 -14.423)"/></g><g transform="translate(87.31 120.181)"><path class="e" d="M196,372.171h-14.7v9.258c0,1.983,1.079,2.13,2.668,2.13h21.091C205.49,374.272,199.869,372.171,196,372.171Z" transform="translate(-181.308 -372.171)"/></g><g transform="translate(115.867 72.613)"><path class="d" d="M120.649,289.531c6.072-16.612,8.584-34.019-.412-58.957h6.916c9,24.938,6.494,42.345.412,58.957-1.442,3.947-3.09,7.854-4.836,11.811h-6.916C117.549,297.385,119.2,293.477,120.649,289.531Z" transform="translate(-115.813 -230.574)"/></g><g transform="translate(125.657 119.584)"><path class="g" d="M55.747,394.182l21.17-23.671a23.134,23.134,0,0,1,6.445.255L63.016,393.514a23.405,23.405,0,0,0,.4,4.015l-1.03.236-5.268,1.208c-.471.108-.756.285-.854-.147a23.5,23.5,0,0,1-.52-4.644Z" transform="translate(-55.747 -370.395)"/></g><g transform="translate(21.885 107.791)"><path class="c" d="M256.969,335.289h60.557v5.331H267.77c-4.051,0-5.974,1.748-7.554,5.292-1.364,3.073-1.393,4.075-2.011,7.786a26.024,26.024,0,0,0-5.18,9.425c-2.462-14.217.393-21.648,3.944-27.834Z" transform="translate(-252.102 -335.289)"/></g><g transform="translate(21.679 117.294)"><path class="d" d="M360.5,372.484a25.492,25.492,0,0,1,19.385-8.9,26,26,0,0,1,5.641.618,25.913,25.913,0,0,0-20.042,24.643c-.02.648.275.8.745.825H355.694c-.883,0-1.53.118-1.5-.825a26.325,26.325,0,0,1,1.128-6.931c.02-.069.039-.128.059-.186v-.01a26.037,26.037,0,0,1,5.121-9.229Z" transform="translate(-354.192 -363.579)"/></g><g transform="translate(132.299 139.208)"><path class="i" d="M17.692,436.321,50.32,428.81a17.173,17.173,0,0,1,.432,4.6l-25.9,5.96-1.02.235A17.169,17.169,0,0,0,30.485,449.7a17.258,17.258,0,0,1-13.822-13.146Z" transform="translate(-16.662 -428.81)"/></g><g transform="translate(27.489 143.38)"><path class="i" d="M319.946,441.23h32.893a20.3,20.3,0,0,1-1.207,5.9H322.487a20.221,20.221,0,0,0,4.8,12.076,19.975,19.975,0,0,1-13.567-17.977h6.229Z" transform="translate(-313.717 -441.23)"/></g><g transform="translate(22.514 93.82)"><path class="i" d="M392.8,303.43V293.7H406.09v9.729a4.253,4.253,0,0,0,4.238,4.241H397.035A4.253,4.253,0,0,1,392.8,303.43Z" transform="translate(-392.797 -293.701)"/></g><g transform="translate(85.946 19.861)"><path class="j" d="M217.085,77.482H203.979c-1.619.147-2.855.648-2.855,3.083V94.516a15.734,15.734,0,0,1-3.806-.638V76.618c0-2.435,1.236-2.926,2.855-3.073h15.951a15.417,15.417,0,0,1,.961,3.937Z" transform="translate(-197.318 -73.545)"/></g><g transform="translate(117.383 57.151)"><path class="k" d="M114.553,185.195,96.2,191.262c-.9.8.118,9.013.726,8.748h21.337V186.5C118.261,183.84,116.878,184.429,114.553,185.195Z" transform="translate(-95.841 -184.548)"/></g><g transform="translate(106.891 63.178)"><path class="h" d="M150.622,211.923h9.28c4.984,0,5.131-8.267-.726-8.748l-8.554-.687-2.3,4.86Z" transform="translate(-148.327 -202.488)"/></g><g transform="translate(77.944 50.911)"><path class="b" d="M201.634,170.641,198.564,168c-7.691-6.627-17.413,4.556-7.132,11.232l8.652,5.616,4.356,2.828h13.783V178.24l-8.564-.7Z" transform="translate(-186.981 -165.974)"/></g><g transform="translate(109.186 67.959)"><path class="j" d="M148.319,221.375V216.8h12.115a3.8,3.8,0,0,0,.834-.079c.285,2.278-1,4.654-3.669,4.654h-9.28Z" transform="translate(-148.319 -216.721)"/></g><g transform="translate(77.943 52.045)"><path class="d" d="M191.433,181.472c-6.22-4.045-5.121-9.729-1.58-12.125-.285,2.454.883,5.272,4.415,7.56l6.74,4.369,1.9,1.247,4.356,2.818h10.958v4.575H204.441l-4.356-2.828Z" transform="translate(-186.981 -169.347)"/></g><g transform="translate(117.74 61.43)"><path class="l" d="M131.194,199.721l7.387-2.435c2.472,2.651,3.669,7.815,2.08,11.183H131.92c2.668,0,3.953-2.376,3.669-4.654A4.6,4.6,0,0,0,131.194,199.721Z" transform="translate(-131.194 -197.286)"/></g></svg>